<?xml version="1.0" encoding="UTF-8" standalone="no"?>
<!DOCTYPE svg PUBLIC "-//W3C//DTD SVG 1.1//EN"
 "http://www.w3.org/Graphics/SVG/1.1/DTD/svg11.dtd">
<!-- Generated by graphviz version 2.43.0 (0)
 -->
<!-- Title: snakemake_dag Pages: 1 -->
<svg width="371pt" height="476pt"
 viewBox="0.00 0.00 370.50 476.00" xmlns="http://www.w3.org/2000/svg" xmlns:xlink="http://www.w3.org/1999/xlink">
<g id="graph0" class="graph" transform="scale(1 1) rotate(0) translate(4 472)">
<title>snakemake_dag</title>
<polygon fill="white" stroke="transparent" points="-4,4 -4,-472 366.5,-472 366.5,4 -4,4"/>
<!-- 0 -->
<g id="node1" class="node">
<title>0</title>
<path fill="none" stroke="#d8bc56" stroke-width="2" d="M132.5,-36C132.5,-36 102.5,-36 102.5,-36 96.5,-36 90.5,-30 90.5,-24 90.5,-24 90.5,-12 90.5,-12 90.5,-6 96.5,0 102.5,0 102.5,0 132.5,0 132.5,0 138.5,0 144.5,-6 144.5,-12 144.5,-12 144.5,-24 144.5,-24 144.5,-30 138.5,-36 132.5,-36"/>
<text text-anchor="middle" x="117.5" y="-15.5" font-family="sans" font-size="10.00">all</text>
</g>
<!-- 1 -->
<g id="node2" class="node">
<title>1</title>
<path fill="none" stroke="#d89c56" stroke-width="2" d="M166.5,-108C166.5,-108 68.5,-108 68.5,-108 62.5,-108 56.5,-102 56.5,-96 56.5,-96 56.5,-84 56.5,-84 56.5,-78 62.5,-72 68.5,-72 68.5,-72 166.5,-72 166.5,-72 172.5,-72 178.5,-78 178.5,-84 178.5,-84 178.5,-96 178.5,-96 178.5,-102 172.5,-108 166.5,-108"/>
<text text-anchor="middle" x="117.5" y="-87.5" font-family="sans" font-size="10.00">artificialrefconcensus</text>
</g>
<!-- 1&#45;&gt;0 -->
<g id="edge2" class="edge">
<title>1&#45;&gt;0</title>
<path fill="none" stroke="grey" stroke-width="2" d="M117.5,-71.7C117.5,-63.98 117.5,-54.71 117.5,-46.11"/>
<polygon fill="grey" stroke="grey" stroke-width="2" points="121,-46.1 117.5,-36.1 114,-46.1 121,-46.1"/>
</g>
<!-- 2 -->
<g id="node3" class="node">
<title>2</title>
<path fill="none" stroke="#56d8c1" stroke-width="2" d="M77,-324C77,-324 12,-324 12,-324 6,-324 0,-318 0,-312 0,-312 0,-300 0,-300 0,-294 6,-288 12,-288 12,-288 77,-288 77,-288 83,-288 89,-294 89,-300 89,-300 89,-312 89,-312 89,-318 83,-324 77,-324"/>
<text text-anchor="middle" x="44.5" y="-303.5" font-family="sans" font-size="10.00">best_reference</text>
</g>
<!-- 2&#45;&gt;0 -->
<g id="edge1" class="edge">
<title>2&#45;&gt;0</title>
<path fill="none" stroke="grey" stroke-width="2" d="M39.69,-287.88C29.33,-247.45 8.86,-144 47.5,-72 55.25,-57.57 68.82,-45.91 81.97,-37.25"/>
<polygon fill="grey" stroke="grey" stroke-width="2" points="83.82,-40.22 90.48,-31.98 80.14,-34.26 83.82,-40.22"/>
</g>
<!-- 2&#45;&gt;1 -->
<g id="edge4" class="edge">
<title>2&#45;&gt;1</title>
<path fill="none" stroke="grey" stroke-width="2" d="M42.94,-287.99C40.89,-257.44 39.95,-192.01 63.5,-144 68.83,-133.15 77.3,-123.25 85.97,-115.02"/>
<polygon fill="grey" stroke="grey" stroke-width="2" points="88.44,-117.5 93.57,-108.23 83.78,-112.28 88.44,-117.5"/>
</g>
<!-- 7 -->
<g id="node8" class="node">
<title>7</title>
<path fill="none" stroke="#56d8a9" stroke-width="2" d="M167.5,-252C167.5,-252 87.5,-252 87.5,-252 81.5,-252 75.5,-246 75.5,-240 75.5,-240 75.5,-228 75.5,-228 75.5,-222 81.5,-216 87.5,-216 87.5,-216 167.5,-216 167.5,-216 173.5,-216 179.5,-222 179.5,-228 179.5,-228 179.5,-240 179.5,-240 179.5,-246 173.5,-252 167.5,-252"/>
<text text-anchor="middle" x="127.5" y="-231.5" font-family="sans" font-size="10.00">artificialreference</text>
</g>
<!-- 2&#45;&gt;7 -->
<g id="edge10" class="edge">
<title>2&#45;&gt;7</title>
<path fill="none" stroke="grey" stroke-width="2" d="M65.02,-287.7C75.37,-278.97 88.09,-268.24 99.34,-258.75"/>
<polygon fill="grey" stroke="grey" stroke-width="2" points="101.83,-261.23 107.22,-252.1 97.32,-255.88 101.83,-261.23"/>
</g>
<!-- 3 -->
<g id="node4" class="node">
<title>3</title>
<path fill="none" stroke="#9fd856" stroke-width="2" d="M69.5,-396C69.5,-396 19.5,-396 19.5,-396 13.5,-396 7.5,-390 7.5,-384 7.5,-384 7.5,-372 7.5,-372 7.5,-366 13.5,-360 19.5,-360 19.5,-360 69.5,-360 69.5,-360 75.5,-360 81.5,-366 81.5,-372 81.5,-372 81.5,-384 81.5,-384 81.5,-390 75.5,-396 69.5,-396"/>
<text text-anchor="middle" x="44.5" y="-375.5" font-family="sans" font-size="10.00">mapcontigs</text>
</g>
<!-- 3&#45;&gt;2 -->
<g id="edge6" class="edge">
<title>3&#45;&gt;2</title>
<path fill="none" stroke="grey" stroke-width="2" d="M44.5,-359.7C44.5,-351.98 44.5,-342.71 44.5,-334.11"/>
<polygon fill="grey" stroke="grey" stroke-width="2" points="48,-334.1 44.5,-324.1 41,-334.1 48,-334.1"/>
</g>
<!-- 4 -->
<g id="node5" class="node">
<title>4</title>
<path fill="none" stroke="#56d0d8" stroke-width="2" d="M142.5,-468C142.5,-468 112.5,-468 112.5,-468 106.5,-468 100.5,-462 100.5,-456 100.5,-456 100.5,-444 100.5,-444 100.5,-438 106.5,-432 112.5,-432 112.5,-432 142.5,-432 142.5,-432 148.5,-432 154.5,-438 154.5,-444 154.5,-444 154.5,-456 154.5,-456 154.5,-462 148.5,-468 142.5,-468"/>
<text text-anchor="middle" x="127.5" y="-447.5" font-family="sans" font-size="10.00">spades</text>
</g>
<!-- 4&#45;&gt;3 -->
<g id="edge8" class="edge">
<title>4&#45;&gt;3</title>
<path fill="none" stroke="grey" stroke-width="2" d="M106.98,-431.7C96.63,-422.97 83.91,-412.24 72.66,-402.75"/>
<polygon fill="grey" stroke="grey" stroke-width="2" points="74.68,-399.88 64.78,-396.1 70.17,-405.23 74.68,-399.88"/>
</g>
<!-- 4&#45;&gt;7 -->
<g id="edge11" class="edge">
<title>4&#45;&gt;7</title>
<path fill="none" stroke="grey" stroke-width="2" d="M127.5,-431.85C127.5,-394.83 127.5,-307.18 127.5,-262.39"/>
<polygon fill="grey" stroke="grey" stroke-width="2" points="131,-262.23 127.5,-252.23 124,-262.23 131,-262.23"/>
</g>
<!-- 5 -->
<g id="node6" class="node">
<title>5</title>
<path fill="none" stroke="#568ad8" stroke-width="2" d="M70.5,-468C70.5,-468 14.5,-468 14.5,-468 8.5,-468 2.5,-462 2.5,-456 2.5,-456 2.5,-444 2.5,-444 2.5,-438 8.5,-432 14.5,-432 14.5,-432 70.5,-432 70.5,-432 76.5,-432 82.5,-438 82.5,-444 82.5,-444 82.5,-456 82.5,-456 82.5,-462 76.5,-468 70.5,-468"/>
<text text-anchor="middle" x="42.5" y="-447.5" font-family="sans" font-size="10.00">makeblastdb</text>
</g>
<!-- 5&#45;&gt;3 -->
<g id="edge7" class="edge">
<title>5&#45;&gt;3</title>
<path fill="none" stroke="grey" stroke-width="2" d="M42.99,-431.7C43.21,-423.98 43.48,-414.71 43.73,-406.11"/>
<polygon fill="grey" stroke="grey" stroke-width="2" points="47.22,-406.2 44.01,-396.1 40.23,-406 47.22,-406.2"/>
</g>
<!-- 6 -->
<g id="node7" class="node">
<title>6</title>
<path fill="none" stroke="#56d89a" stroke-width="2" d="M194,-180C194,-180 85,-180 85,-180 79,-180 73,-174 73,-168 73,-168 73,-156 73,-156 73,-150 79,-144 85,-144 85,-144 194,-144 194,-144 200,-144 206,-150 206,-156 206,-156 206,-168 206,-168 206,-174 200,-180 194,-180"/>
<text text-anchor="middle" x="139.5" y="-159.5" font-family="sans" font-size="10.00">sort_artificial_reference</text>
</g>
<!-- 6&#45;&gt;1 -->
<g id="edge5" class="edge">
<title>6&#45;&gt;1</title>
<path fill="none" stroke="grey" stroke-width="2" d="M134.06,-143.7C131.61,-135.9 128.66,-126.51 125.93,-117.83"/>
<polygon fill="grey" stroke="grey" stroke-width="2" points="129.21,-116.59 122.88,-108.1 122.54,-118.69 129.21,-116.59"/>
</g>
<!-- 7&#45;&gt;6 -->
<g id="edge9" class="edge">
<title>7&#45;&gt;6</title>
<path fill="none" stroke="grey" stroke-width="2" d="M130.47,-215.7C131.79,-207.98 133.38,-198.71 134.85,-190.11"/>
<polygon fill="grey" stroke="grey" stroke-width="2" points="138.33,-190.55 136.57,-180.1 131.43,-189.37 138.33,-190.55"/>
</g>
<!-- 8 -->
<g id="node9" class="node">
<title>8</title>
<path fill="none" stroke="#d8d356" stroke-width="2" d="M266.5,-108C266.5,-108 236.5,-108 236.5,-108 230.5,-108 224.5,-102 224.5,-96 224.5,-96 224.5,-84 224.5,-84 224.5,-78 230.5,-72 236.5,-72 236.5,-72 266.5,-72 266.5,-72 272.5,-72 278.5,-78 278.5,-84 278.5,-84 278.5,-96 278.5,-96 278.5,-102 272.5,-108 266.5,-108"/>
<text text-anchor="middle" x="251.5" y="-87.5" font-family="sans" font-size="10.00">multiqc</text>
</g>
<!-- 8&#45;&gt;0 -->
<g id="edge3" class="edge">
<title>8&#45;&gt;0</title>
<path fill="none" stroke="grey" stroke-width="2" d="M224.38,-74.83C204.04,-64.21 175.99,-49.55 153.72,-37.92"/>
<polygon fill="grey" stroke="grey" stroke-width="2" points="155.06,-34.67 144.58,-33.14 151.82,-40.88 155.06,-34.67"/>
</g>
<!-- 9 -->
<g id="node10" class="node">
<title>9</title>
<path fill="none" stroke="#78d856" stroke-width="2" d="M266.5,-180C266.5,-180 236.5,-180 236.5,-180 230.5,-180 224.5,-174 224.5,-168 224.5,-168 224.5,-156 224.5,-156 224.5,-150 230.5,-144 236.5,-144 236.5,-144 266.5,-144 266.5,-144 272.5,-144 278.5,-150 278.5,-156 278.5,-156 278.5,-168 278.5,-168 278.5,-174 272.5,-180 266.5,-180"/>
<text text-anchor="middle" x="251.5" y="-159.5" font-family="sans" font-size="10.00">fastqc</text>
</g>
<!-- 9&#45;&gt;8 -->
<g id="edge13" class="edge">
<title>9&#45;&gt;8</title>
<path fill="none" stroke="grey" stroke-width="2" d="M251.5,-143.7C251.5,-135.98 251.5,-126.71 251.5,-118.11"/>
<polygon fill="grey" stroke="grey" stroke-width="2" points="255,-118.1 251.5,-108.1 248,-118.1 255,-118.1"/>
</g>
<!-- 10 -->
<g id="node11" class="node">
<title>10</title>
<path fill="none" stroke="#56a9d8" stroke-width="2" d="M276.5,-252C276.5,-252 220.5,-252 220.5,-252 214.5,-252 208.5,-246 208.5,-240 208.5,-240 208.5,-228 208.5,-228 208.5,-222 214.5,-216 220.5,-216 220.5,-216 276.5,-216 276.5,-216 282.5,-216 288.5,-222 288.5,-228 288.5,-228 288.5,-240 288.5,-240 288.5,-246 282.5,-252 276.5,-252"/>
<text text-anchor="middle" x="248.5" y="-231.5" font-family="sans" font-size="10.00">trimmomatic</text>
</g>
<!-- 10&#45;&gt;9 -->
<g id="edge14" class="edge">
<title>10&#45;&gt;9</title>
<path fill="none" stroke="grey" stroke-width="2" d="M249.24,-215.7C249.57,-207.98 249.97,-198.71 250.34,-190.11"/>
<polygon fill="grey" stroke="grey" stroke-width="2" points="253.84,-190.25 250.77,-180.1 246.84,-189.95 253.84,-190.25"/>
</g>
<!-- 11 -->
<g id="node12" class="node">
<title>11</title>
<path fill="none" stroke="#d87556" stroke-width="2" d="M350.5,-180C350.5,-180 312.5,-180 312.5,-180 306.5,-180 300.5,-174 300.5,-168 300.5,-168 300.5,-156 300.5,-156 300.5,-150 306.5,-144 312.5,-144 312.5,-144 350.5,-144 350.5,-144 356.5,-144 362.5,-150 362.5,-156 362.5,-156 362.5,-168 362.5,-168 362.5,-174 356.5,-180 350.5,-180"/>
<text text-anchor="middle" x="331.5" y="-159.5" font-family="sans" font-size="10.00">qualimap</text>
</g>
<!-- 11&#45;&gt;8 -->
<g id="edge12" class="edge">
<title>11&#45;&gt;8</title>
<path fill="none" stroke="grey" stroke-width="2" d="M311.72,-143.7C301.75,-134.97 289.49,-124.24 278.64,-114.75"/>
<polygon fill="grey" stroke="grey" stroke-width="2" points="280.88,-112.06 271.05,-108.1 276.27,-117.32 280.88,-112.06"/>
</g>
<!-- 12 -->
<g id="node13" class="node">
<title>12</title>
<path fill="none" stroke="#afd856" stroke-width="2" d="M348.5,-252C348.5,-252 318.5,-252 318.5,-252 312.5,-252 306.5,-246 306.5,-240 306.5,-240 306.5,-228 306.5,-228 306.5,-222 312.5,-216 318.5,-216 318.5,-216 348.5,-216 348.5,-216 354.5,-216 360.5,-222 360.5,-228 360.5,-228 360.5,-240 360.5,-240 360.5,-246 354.5,-252 348.5,-252"/>
<text text-anchor="middle" x="333.5" y="-231.5" font-family="sans" font-size="10.00">sort</text>
</g>
<!-- 12&#45;&gt;11 -->
<g id="edge15" class="edge">
<title>12&#45;&gt;11</title>
<path fill="none" stroke="grey" stroke-width="2" d="M333.01,-215.7C332.79,-207.98 332.52,-198.71 332.27,-190.11"/>
<polygon fill="grey" stroke="grey" stroke-width="2" points="335.77,-190 331.99,-180.1 328.78,-190.2 335.77,-190"/>
</g>
</g>
</svg>
