<?xml version="1.0" encoding="UTF-8" standalone="no"?>
<!DOCTYPE svg PUBLIC "-//W3C//DTD SVG 1.1//EN"
 "http://www.w3.org/Graphics/SVG/1.1/DTD/svg11.dtd">
<!-- Generated by graphviz version 3.0.0 (20220226.1711)
 -->
<!-- Title: snakemake_dag Pages: 1 -->
<svg width="806pt" height="332pt"
 viewBox="0.00 0.00 806.00 332.00" xmlns="http://www.w3.org/2000/svg" xmlns:xlink="http://www.w3.org/1999/xlink">
<g id="graph0" class="graph" transform="scale(1 1) rotate(0) translate(4 328)">
<title>snakemake_dag</title>
<polygon fill="white" stroke="transparent" points="-4,4 -4,-328 802,-328 802,4 -4,4"/>
<!-- 0 -->
<g id="node1" class="node">
<title>0</title>
<path fill="none" stroke="#56d88a" stroke-width="2" stroke-dasharray="5,2" d="M420,-36C420,-36 390,-36 390,-36 384,-36 378,-30 378,-24 378,-24 378,-12 378,-12 378,-6 384,0 390,0 390,0 420,0 420,0 426,0 432,-6 432,-12 432,-12 432,-24 432,-24 432,-30 426,-36 420,-36"/>
<text text-anchor="middle" x="405" y="-15.5" font-family="sans" font-size="10.00">all</text>
</g>
<!-- 1 -->
<g id="node2" class="node">
<title>1</title>
<path fill="none" stroke="#d8bc56" stroke-width="2" stroke-dasharray="5,2" d="M145.5,-108C145.5,-108 112.5,-108 112.5,-108 106.5,-108 100.5,-102 100.5,-96 100.5,-96 100.5,-84 100.5,-84 100.5,-78 106.5,-72 112.5,-72 112.5,-72 145.5,-72 145.5,-72 151.5,-72 157.5,-78 157.5,-84 157.5,-84 157.5,-96 157.5,-96 157.5,-102 151.5,-108 145.5,-108"/>
<text text-anchor="middle" x="129" y="-87.5" font-family="sans" font-size="10.00">mapstats</text>
</g>
<!-- 1&#45;&gt;0 -->
<g id="edge1" class="edge">
<title>1&#45;&gt;0</title>
<path fill="none" stroke="grey" stroke-width="2" d="M157.76,-81.71C208.19,-68.92 312.5,-42.46 368.14,-28.35"/>
<polygon fill="grey" stroke="grey" stroke-width="2" points="369.11,-31.71 377.94,-25.86 367.39,-24.93 369.11,-31.71"/>
</g>
<!-- 2 -->
<g id="node3" class="node">
<title>2</title>
<path fill="none" stroke="#d85656" stroke-width="2" stroke-dasharray="5,2" d="M89,-252C89,-252 59,-252 59,-252 53,-252 47,-246 47,-240 47,-240 47,-228 47,-228 47,-222 53,-216 59,-216 59,-216 89,-216 89,-216 95,-216 101,-222 101,-228 101,-228 101,-240 101,-240 101,-246 95,-252 89,-252"/>
<text text-anchor="middle" x="74" y="-231.5" font-family="sans" font-size="10.00">sort</text>
</g>
<!-- 2&#45;&gt;1 -->
<g id="edge7" class="edge">
<title>2&#45;&gt;1</title>
<path fill="none" stroke="grey" stroke-width="2" d="M75.7,-215.67C77.95,-197.29 82.89,-167.69 93,-144 97.08,-134.43 102.99,-124.78 108.84,-116.39"/>
<polygon fill="grey" stroke="grey" stroke-width="2" points="111.78,-118.29 114.84,-108.15 106.12,-114.17 111.78,-118.29"/>
</g>
<!-- 4 -->
<g id="node5" class="node">
<title>4</title>
<path fill="none" stroke="#88d856" stroke-width="2" stroke-dasharray="5,2" d="M144,-180C144,-180 114,-180 114,-180 108,-180 102,-174 102,-168 102,-168 102,-156 102,-156 102,-150 108,-144 114,-144 114,-144 144,-144 144,-144 150,-144 156,-150 156,-156 156,-156 156,-168 156,-168 156,-174 150,-180 144,-180"/>
<text text-anchor="middle" x="129" y="-159.5" font-family="sans" font-size="10.00">index</text>
</g>
<!-- 2&#45;&gt;4 -->
<g id="edge10" class="edge">
<title>2&#45;&gt;4</title>
<path fill="none" stroke="grey" stroke-width="2" d="M87.6,-215.7C94.12,-207.39 102.07,-197.28 109.25,-188.14"/>
<polygon fill="grey" stroke="grey" stroke-width="2" points="112.13,-190.13 115.56,-180.1 106.63,-185.81 112.13,-190.13"/>
</g>
<!-- 3 -->
<g id="node4" class="node">
<title>3</title>
<path fill="none" stroke="#56c1d8" stroke-width="2" stroke-dasharray="5,2" d="M106,-324C106,-324 12,-324 12,-324 6,-324 0,-318 0,-312 0,-312 0,-300 0,-300 0,-294 6,-288 12,-288 12,-288 106,-288 106,-288 112,-288 118,-294 118,-300 118,-300 118,-312 118,-312 118,-318 112,-324 106,-324"/>
<text text-anchor="middle" x="59" y="-309" font-family="sans" font-size="10.00">samtobam</text>
<text text-anchor="middle" x="59" y="-298" font-family="sans" font-size="10.00">dana: ERR024609_tiny</text>
</g>
<!-- 3&#45;&gt;2 -->
<g id="edge9" class="edge">
<title>3&#45;&gt;2</title>
<path fill="none" stroke="grey" stroke-width="2" d="M62.71,-287.7C64.36,-279.98 66.35,-270.71 68.19,-262.11"/>
<polygon fill="grey" stroke="grey" stroke-width="2" points="71.66,-262.62 70.33,-252.1 64.82,-261.15 71.66,-262.62"/>
</g>
<!-- 4&#45;&gt;1 -->
<g id="edge8" class="edge">
<title>4&#45;&gt;1</title>
<path fill="none" stroke="grey" stroke-width="2" d="M129,-143.7C129,-135.98 129,-126.71 129,-118.11"/>
<polygon fill="grey" stroke="grey" stroke-width="2" points="132.5,-118.1 129,-108.1 125.5,-118.1 132.5,-118.1"/>
</g>
<!-- 5 -->
<g id="node6" class="node">
<title>5</title>
<path fill="none" stroke="#d8bc56" stroke-width="2" stroke-dasharray="5,2" d="M268.5,-108C268.5,-108 235.5,-108 235.5,-108 229.5,-108 223.5,-102 223.5,-96 223.5,-96 223.5,-84 223.5,-84 223.5,-78 229.5,-72 235.5,-72 235.5,-72 268.5,-72 268.5,-72 274.5,-72 280.5,-78 280.5,-84 280.5,-84 280.5,-96 280.5,-96 280.5,-102 274.5,-108 268.5,-108"/>
<text text-anchor="middle" x="252" y="-87.5" font-family="sans" font-size="10.00">mapstats</text>
</g>
<!-- 5&#45;&gt;0 -->
<g id="edge2" class="edge">
<title>5&#45;&gt;0</title>
<path fill="none" stroke="grey" stroke-width="2" d="M280.78,-75.83C305.6,-64.48 341.59,-48.01 368.45,-35.72"/>
<polygon fill="grey" stroke="grey" stroke-width="2" points="370.25,-38.75 377.89,-31.4 367.34,-32.38 370.25,-38.75"/>
</g>
<!-- 6 -->
<g id="node7" class="node">
<title>6</title>
<path fill="none" stroke="#d85656" stroke-width="2" stroke-dasharray="5,2" d="M212,-252C212,-252 182,-252 182,-252 176,-252 170,-246 170,-240 170,-240 170,-228 170,-228 170,-222 176,-216 182,-216 182,-216 212,-216 212,-216 218,-216 224,-222 224,-228 224,-228 224,-240 224,-240 224,-246 218,-252 212,-252"/>
<text text-anchor="middle" x="197" y="-231.5" font-family="sans" font-size="10.00">sort</text>
</g>
<!-- 6&#45;&gt;5 -->
<g id="edge11" class="edge">
<title>6&#45;&gt;5</title>
<path fill="none" stroke="grey" stroke-width="2" d="M198.7,-215.67C200.95,-197.29 205.89,-167.69 216,-144 220.08,-134.43 225.99,-124.78 231.84,-116.39"/>
<polygon fill="grey" stroke="grey" stroke-width="2" points="234.78,-118.29 237.84,-108.15 229.12,-114.17 234.78,-118.29"/>
</g>
<!-- 8 -->
<g id="node9" class="node">
<title>8</title>
<path fill="none" stroke="#88d856" stroke-width="2" stroke-dasharray="5,2" d="M267,-180C267,-180 237,-180 237,-180 231,-180 225,-174 225,-168 225,-168 225,-156 225,-156 225,-150 231,-144 237,-144 237,-144 267,-144 267,-144 273,-144 279,-150 279,-156 279,-156 279,-168 279,-168 279,-174 273,-180 267,-180"/>
<text text-anchor="middle" x="252" y="-159.5" font-family="sans" font-size="10.00">index</text>
</g>
<!-- 6&#45;&gt;8 -->
<g id="edge14" class="edge">
<title>6&#45;&gt;8</title>
<path fill="none" stroke="grey" stroke-width="2" d="M210.6,-215.7C217.12,-207.39 225.07,-197.28 232.25,-188.14"/>
<polygon fill="grey" stroke="grey" stroke-width="2" points="235.13,-190.13 238.56,-180.1 229.63,-185.81 235.13,-190.13"/>
</g>
<!-- 7 -->
<g id="node8" class="node">
<title>7</title>
<path fill="none" stroke="#56c1d8" stroke-width="2" stroke-dasharray="5,2" d="M242,-324C242,-324 148,-324 148,-324 142,-324 136,-318 136,-312 136,-312 136,-300 136,-300 136,-294 142,-288 148,-288 148,-288 242,-288 242,-288 248,-288 254,-294 254,-300 254,-300 254,-312 254,-312 254,-318 248,-324 242,-324"/>
<text text-anchor="middle" x="195" y="-309" font-family="sans" font-size="10.00">samtobam</text>
<text text-anchor="middle" x="195" y="-298" font-family="sans" font-size="10.00">dana: ERR024608_tiny</text>
</g>
<!-- 7&#45;&gt;6 -->
<g id="edge13" class="edge">
<title>7&#45;&gt;6</title>
<path fill="none" stroke="grey" stroke-width="2" d="M195.49,-287.7C195.71,-279.98 195.98,-270.71 196.23,-262.11"/>
<polygon fill="grey" stroke="grey" stroke-width="2" points="199.72,-262.2 196.51,-252.1 192.73,-262 199.72,-262.2"/>
</g>
<!-- 8&#45;&gt;5 -->
<g id="edge12" class="edge">
<title>8&#45;&gt;5</title>
<path fill="none" stroke="grey" stroke-width="2" d="M252,-143.7C252,-135.98 252,-126.71 252,-118.11"/>
<polygon fill="grey" stroke="grey" stroke-width="2" points="255.5,-118.1 252,-108.1 248.5,-118.1 255.5,-118.1"/>
</g>
<!-- 9 -->
<g id="node10" class="node">
<title>9</title>
<path fill="none" stroke="#d8bc56" stroke-width="2" stroke-dasharray="5,2" d="M384.5,-108C384.5,-108 351.5,-108 351.5,-108 345.5,-108 339.5,-102 339.5,-96 339.5,-96 339.5,-84 339.5,-84 339.5,-78 345.5,-72 351.5,-72 351.5,-72 384.5,-72 384.5,-72 390.5,-72 396.5,-78 396.5,-84 396.5,-84 396.5,-96 396.5,-96 396.5,-102 390.5,-108 384.5,-108"/>
<text text-anchor="middle" x="368" y="-87.5" font-family="sans" font-size="10.00">mapstats</text>
</g>
<!-- 9&#45;&gt;0 -->
<g id="edge3" class="edge">
<title>9&#45;&gt;0</title>
<path fill="none" stroke="grey" stroke-width="2" d="M377.15,-71.7C381.4,-63.64 386.56,-53.89 391.27,-44.98"/>
<polygon fill="grey" stroke="grey" stroke-width="2" points="394.38,-46.58 395.96,-36.1 388.19,-43.31 394.38,-46.58"/>
</g>
<!-- 10 -->
<g id="node11" class="node">
<title>10</title>
<path fill="none" stroke="#d85656" stroke-width="2" stroke-dasharray="5,2" d="M346,-252C346,-252 316,-252 316,-252 310,-252 304,-246 304,-240 304,-240 304,-228 304,-228 304,-222 310,-216 316,-216 316,-216 346,-216 346,-216 352,-216 358,-222 358,-228 358,-228 358,-240 358,-240 358,-246 352,-252 346,-252"/>
<text text-anchor="middle" x="331" y="-231.5" font-family="sans" font-size="10.00">sort</text>
</g>
<!-- 10&#45;&gt;9 -->
<g id="edge15" class="edge">
<title>10&#45;&gt;9</title>
<path fill="none" stroke="grey" stroke-width="2" d="M329.86,-215.85C329.18,-197.61 329.58,-168.13 337,-144 339.9,-134.57 344.75,-125.04 349.77,-116.7"/>
<polygon fill="grey" stroke="grey" stroke-width="2" points="352.77,-118.5 355.19,-108.19 346.87,-114.74 352.77,-118.5"/>
</g>
<!-- 12 -->
<g id="node13" class="node">
<title>12</title>
<path fill="none" stroke="#88d856" stroke-width="2" stroke-dasharray="5,2" d="M388,-180C388,-180 358,-180 358,-180 352,-180 346,-174 346,-168 346,-168 346,-156 346,-156 346,-150 352,-144 358,-144 358,-144 388,-144 388,-144 394,-144 400,-150 400,-156 400,-156 400,-168 400,-168 400,-174 394,-180 388,-180"/>
<text text-anchor="middle" x="373" y="-159.5" font-family="sans" font-size="10.00">index</text>
</g>
<!-- 10&#45;&gt;12 -->
<g id="edge18" class="edge">
<title>10&#45;&gt;12</title>
<path fill="none" stroke="grey" stroke-width="2" d="M341.38,-215.7C346.26,-207.56 352.19,-197.69 357.58,-188.7"/>
<polygon fill="grey" stroke="grey" stroke-width="2" points="360.59,-190.48 362.74,-180.1 354.59,-186.88 360.59,-190.48"/>
</g>
<!-- 11 -->
<g id="node12" class="node">
<title>11</title>
<path fill="none" stroke="#56c1d8" stroke-width="2" stroke-dasharray="5,2" d="M378,-324C378,-324 284,-324 284,-324 278,-324 272,-318 272,-312 272,-312 272,-300 272,-300 272,-294 278,-288 284,-288 284,-288 378,-288 378,-288 384,-288 390,-294 390,-300 390,-300 390,-312 390,-312 390,-318 384,-324 378,-324"/>
<text text-anchor="middle" x="331" y="-309" font-family="sans" font-size="10.00">samtobam</text>
<text text-anchor="middle" x="331" y="-298" font-family="sans" font-size="10.00">dana: ERR024604_tiny</text>
</g>
<!-- 11&#45;&gt;10 -->
<g id="edge17" class="edge">
<title>11&#45;&gt;10</title>
<path fill="none" stroke="grey" stroke-width="2" d="M331,-287.7C331,-279.98 331,-270.71 331,-262.11"/>
<polygon fill="grey" stroke="grey" stroke-width="2" points="334.5,-262.1 331,-252.1 327.5,-262.1 334.5,-262.1"/>
</g>
<!-- 12&#45;&gt;9 -->
<g id="edge16" class="edge">
<title>12&#45;&gt;9</title>
<path fill="none" stroke="grey" stroke-width="2" d="M371.76,-143.7C371.21,-135.98 370.55,-126.71 369.94,-118.11"/>
<polygon fill="grey" stroke="grey" stroke-width="2" points="373.43,-117.83 369.22,-108.1 366.44,-118.33 373.43,-117.83"/>
</g>
<!-- 13 -->
<g id="node14" class="node">
<title>13</title>
<path fill="none" stroke="#d8bc56" stroke-width="2" stroke-dasharray="5,2" d="M459.5,-108C459.5,-108 426.5,-108 426.5,-108 420.5,-108 414.5,-102 414.5,-96 414.5,-96 414.5,-84 414.5,-84 414.5,-78 420.5,-72 426.5,-72 426.5,-72 459.5,-72 459.5,-72 465.5,-72 471.5,-78 471.5,-84 471.5,-84 471.5,-96 471.5,-96 471.5,-102 465.5,-108 459.5,-108"/>
<text text-anchor="middle" x="443" y="-87.5" font-family="sans" font-size="10.00">mapstats</text>
</g>
<!-- 13&#45;&gt;0 -->
<g id="edge4" class="edge">
<title>13&#45;&gt;0</title>
<path fill="none" stroke="grey" stroke-width="2" d="M433.61,-71.7C429.24,-63.64 423.94,-53.89 419.1,-44.98"/>
<polygon fill="grey" stroke="grey" stroke-width="2" points="422.13,-43.22 414.29,-36.1 415.98,-46.56 422.13,-43.22"/>
</g>
<!-- 14 -->
<g id="node15" class="node">
<title>14</title>
<path fill="none" stroke="#d85656" stroke-width="2" stroke-dasharray="5,2" d="M482,-252C482,-252 452,-252 452,-252 446,-252 440,-246 440,-240 440,-240 440,-228 440,-228 440,-222 446,-216 452,-216 452,-216 482,-216 482,-216 488,-216 494,-222 494,-228 494,-228 494,-240 494,-240 494,-246 488,-252 482,-252"/>
<text text-anchor="middle" x="467" y="-231.5" font-family="sans" font-size="10.00">sort</text>
</g>
<!-- 14&#45;&gt;13 -->
<g id="edge19" class="edge">
<title>14&#45;&gt;13</title>
<path fill="none" stroke="grey" stroke-width="2" d="M461.37,-216C458.16,-205.69 454.33,-192.21 452,-180 448.1,-159.53 445.82,-136.08 444.53,-118.38"/>
<polygon fill="grey" stroke="grey" stroke-width="2" points="448,-117.93 443.84,-108.19 441.02,-118.4 448,-117.93"/>
</g>
<!-- 16 -->
<g id="node17" class="node">
<title>16</title>
<path fill="none" stroke="#88d856" stroke-width="2" stroke-dasharray="5,2" d="M503,-180C503,-180 473,-180 473,-180 467,-180 461,-174 461,-168 461,-168 461,-156 461,-156 461,-150 467,-144 473,-144 473,-144 503,-144 503,-144 509,-144 515,-150 515,-156 515,-156 515,-168 515,-168 515,-174 509,-180 503,-180"/>
<text text-anchor="middle" x="488" y="-159.5" font-family="sans" font-size="10.00">index</text>
</g>
<!-- 14&#45;&gt;16 -->
<g id="edge22" class="edge">
<title>14&#45;&gt;16</title>
<path fill="none" stroke="grey" stroke-width="2" d="M472.19,-215.7C474.53,-207.9 477.35,-198.51 479.95,-189.83"/>
<polygon fill="grey" stroke="grey" stroke-width="2" points="483.35,-190.69 482.87,-180.1 476.64,-188.68 483.35,-190.69"/>
</g>
<!-- 15 -->
<g id="node16" class="node">
<title>15</title>
<path fill="none" stroke="#56c1d8" stroke-width="2" stroke-dasharray="5,2" d="M514,-324C514,-324 420,-324 420,-324 414,-324 408,-318 408,-312 408,-312 408,-300 408,-300 408,-294 414,-288 420,-288 420,-288 514,-288 514,-288 520,-288 526,-294 526,-300 526,-300 526,-312 526,-312 526,-318 520,-324 514,-324"/>
<text text-anchor="middle" x="467" y="-309" font-family="sans" font-size="10.00">samtobam</text>
<text text-anchor="middle" x="467" y="-298" font-family="sans" font-size="10.00">dana: ERR024605_tiny</text>
</g>
<!-- 15&#45;&gt;14 -->
<g id="edge21" class="edge">
<title>15&#45;&gt;14</title>
<path fill="none" stroke="grey" stroke-width="2" d="M467,-287.7C467,-279.98 467,-270.71 467,-262.11"/>
<polygon fill="grey" stroke="grey" stroke-width="2" points="470.5,-262.1 467,-252.1 463.5,-262.1 470.5,-262.1"/>
</g>
<!-- 16&#45;&gt;13 -->
<g id="edge20" class="edge">
<title>16&#45;&gt;13</title>
<path fill="none" stroke="grey" stroke-width="2" d="M476.88,-143.7C471.64,-135.56 465.3,-125.69 459.52,-116.7"/>
<polygon fill="grey" stroke="grey" stroke-width="2" points="462.35,-114.62 454,-108.1 456.46,-118.41 462.35,-114.62"/>
</g>
<!-- 17 -->
<g id="node18" class="node">
<title>17</title>
<path fill="none" stroke="#d8bc56" stroke-width="2" stroke-dasharray="5,2" d="M562.5,-108C562.5,-108 529.5,-108 529.5,-108 523.5,-108 517.5,-102 517.5,-96 517.5,-96 517.5,-84 517.5,-84 517.5,-78 523.5,-72 529.5,-72 529.5,-72 562.5,-72 562.5,-72 568.5,-72 574.5,-78 574.5,-84 574.5,-84 574.5,-96 574.5,-96 574.5,-102 568.5,-108 562.5,-108"/>
<text text-anchor="middle" x="546" y="-87.5" font-family="sans" font-size="10.00">mapstats</text>
</g>
<!-- 17&#45;&gt;0 -->
<g id="edge5" class="edge">
<title>17&#45;&gt;0</title>
<path fill="none" stroke="grey" stroke-width="2" d="M517.47,-74.83C495.44,-63.9 464.83,-48.7 441.1,-36.92"/>
<polygon fill="grey" stroke="grey" stroke-width="2" points="442.57,-33.74 432.06,-32.43 439.46,-40.01 442.57,-33.74"/>
</g>
<!-- 18 -->
<g id="node19" class="node">
<title>18</title>
<path fill="none" stroke="#d85656" stroke-width="2" stroke-dasharray="5,2" d="M616,-252C616,-252 586,-252 586,-252 580,-252 574,-246 574,-240 574,-240 574,-228 574,-228 574,-222 580,-216 586,-216 586,-216 616,-216 616,-216 622,-216 628,-222 628,-228 628,-228 628,-240 628,-240 628,-246 622,-252 616,-252"/>
<text text-anchor="middle" x="601" y="-231.5" font-family="sans" font-size="10.00">sort</text>
</g>
<!-- 18&#45;&gt;17 -->
<g id="edge23" class="edge">
<title>18&#45;&gt;17</title>
<path fill="none" stroke="grey" stroke-width="2" d="M586.84,-215.85C579.31,-205.93 570.5,-192.89 565,-180 556.59,-160.29 551.76,-136.49 549.07,-118.46"/>
<polygon fill="grey" stroke="grey" stroke-width="2" points="552.51,-117.76 547.7,-108.33 545.57,-118.71 552.51,-117.76"/>
</g>
<!-- 20 -->
<g id="node21" class="node">
<title>20</title>
<path fill="none" stroke="#88d856" stroke-width="2" stroke-dasharray="5,2" d="M616,-180C616,-180 586,-180 586,-180 580,-180 574,-174 574,-168 574,-168 574,-156 574,-156 574,-150 580,-144 586,-144 586,-144 616,-144 616,-144 622,-144 628,-150 628,-156 628,-156 628,-168 628,-168 628,-174 622,-180 616,-180"/>
<text text-anchor="middle" x="601" y="-159.5" font-family="sans" font-size="10.00">index</text>
</g>
<!-- 18&#45;&gt;20 -->
<g id="edge26" class="edge">
<title>18&#45;&gt;20</title>
<path fill="none" stroke="grey" stroke-width="2" d="M601,-215.7C601,-207.98 601,-198.71 601,-190.11"/>
<polygon fill="grey" stroke="grey" stroke-width="2" points="604.5,-190.1 601,-180.1 597.5,-190.1 604.5,-190.1"/>
</g>
<!-- 19 -->
<g id="node20" class="node">
<title>19</title>
<path fill="none" stroke="#56c1d8" stroke-width="2" stroke-dasharray="5,2" d="M650,-324C650,-324 556,-324 556,-324 550,-324 544,-318 544,-312 544,-312 544,-300 544,-300 544,-294 550,-288 556,-288 556,-288 650,-288 650,-288 656,-288 662,-294 662,-300 662,-300 662,-312 662,-312 662,-318 656,-324 650,-324"/>
<text text-anchor="middle" x="603" y="-309" font-family="sans" font-size="10.00">samtobam</text>
<text text-anchor="middle" x="603" y="-298" font-family="sans" font-size="10.00">dana: ERR024607_tiny</text>
</g>
<!-- 19&#45;&gt;18 -->
<g id="edge25" class="edge">
<title>19&#45;&gt;18</title>
<path fill="none" stroke="grey" stroke-width="2" d="M602.51,-287.7C602.29,-279.98 602.02,-270.71 601.77,-262.11"/>
<polygon fill="grey" stroke="grey" stroke-width="2" points="605.27,-262 601.49,-252.1 598.28,-262.2 605.27,-262"/>
</g>
<!-- 20&#45;&gt;17 -->
<g id="edge24" class="edge">
<title>20&#45;&gt;17</title>
<path fill="none" stroke="grey" stroke-width="2" d="M587.4,-143.7C580.88,-135.39 572.93,-125.28 565.75,-116.14"/>
<polygon fill="grey" stroke="grey" stroke-width="2" points="568.37,-113.81 559.44,-108.1 562.87,-118.13 568.37,-113.81"/>
</g>
<!-- 21 -->
<g id="node22" class="node">
<title>21</title>
<path fill="none" stroke="#d8bc56" stroke-width="2" stroke-dasharray="5,2" d="M687.5,-108C687.5,-108 654.5,-108 654.5,-108 648.5,-108 642.5,-102 642.5,-96 642.5,-96 642.5,-84 642.5,-84 642.5,-78 648.5,-72 654.5,-72 654.5,-72 687.5,-72 687.5,-72 693.5,-72 699.5,-78 699.5,-84 699.5,-84 699.5,-96 699.5,-96 699.5,-102 693.5,-108 687.5,-108"/>
<text text-anchor="middle" x="671" y="-87.5" font-family="sans" font-size="10.00">mapstats</text>
</g>
<!-- 21&#45;&gt;0 -->
<g id="edge6" class="edge">
<title>21&#45;&gt;0</title>
<path fill="none" stroke="grey" stroke-width="2" d="M642.28,-81.44C593.69,-68.66 495.34,-42.77 441.78,-28.68"/>
<polygon fill="grey" stroke="grey" stroke-width="2" points="442.57,-25.27 432.01,-26.11 440.79,-32.04 442.57,-25.27"/>
</g>
<!-- 22 -->
<g id="node23" class="node">
<title>22</title>
<path fill="none" stroke="#d85656" stroke-width="2" stroke-dasharray="5,2" d="M741,-252C741,-252 711,-252 711,-252 705,-252 699,-246 699,-240 699,-240 699,-228 699,-228 699,-222 705,-216 711,-216 711,-216 741,-216 741,-216 747,-216 753,-222 753,-228 753,-228 753,-240 753,-240 753,-246 747,-252 741,-252"/>
<text text-anchor="middle" x="726" y="-231.5" font-family="sans" font-size="10.00">sort</text>
</g>
<!-- 22&#45;&gt;21 -->
<g id="edge27" class="edge">
<title>22&#45;&gt;21</title>
<path fill="none" stroke="grey" stroke-width="2" d="M711.84,-215.85C704.31,-205.93 695.5,-192.89 690,-180 681.59,-160.29 676.76,-136.49 674.07,-118.46"/>
<polygon fill="grey" stroke="grey" stroke-width="2" points="677.51,-117.76 672.7,-108.33 670.57,-118.71 677.51,-117.76"/>
</g>
<!-- 24 -->
<g id="node25" class="node">
<title>24</title>
<path fill="none" stroke="#88d856" stroke-width="2" stroke-dasharray="5,2" d="M741,-180C741,-180 711,-180 711,-180 705,-180 699,-174 699,-168 699,-168 699,-156 699,-156 699,-150 705,-144 711,-144 711,-144 741,-144 741,-144 747,-144 753,-150 753,-156 753,-156 753,-168 753,-168 753,-174 747,-180 741,-180"/>
<text text-anchor="middle" x="726" y="-159.5" font-family="sans" font-size="10.00">index</text>
</g>
<!-- 22&#45;&gt;24 -->
<g id="edge30" class="edge">
<title>22&#45;&gt;24</title>
<path fill="none" stroke="grey" stroke-width="2" d="M726,-215.7C726,-207.98 726,-198.71 726,-190.11"/>
<polygon fill="grey" stroke="grey" stroke-width="2" points="729.5,-190.1 726,-180.1 722.5,-190.1 729.5,-190.1"/>
</g>
<!-- 23 -->
<g id="node24" class="node">
<title>23</title>
<path fill="none" stroke="#56c1d8" stroke-width="2" stroke-dasharray="5,2" d="M786,-324C786,-324 692,-324 692,-324 686,-324 680,-318 680,-312 680,-312 680,-300 680,-300 680,-294 686,-288 692,-288 692,-288 786,-288 786,-288 792,-288 798,-294 798,-300 798,-300 798,-312 798,-312 798,-318 792,-324 786,-324"/>
<text text-anchor="middle" x="739" y="-309" font-family="sans" font-size="10.00">samtobam</text>
<text text-anchor="middle" x="739" y="-298" font-family="sans" font-size="10.00">dana: ERR024606_tiny</text>
</g>
<!-- 23&#45;&gt;22 -->
<g id="edge29" class="edge">
<title>23&#45;&gt;22</title>
<path fill="none" stroke="grey" stroke-width="2" d="M735.79,-287.7C734.35,-279.98 732.63,-270.71 731.04,-262.11"/>
<polygon fill="grey" stroke="grey" stroke-width="2" points="734.44,-261.3 729.18,-252.1 727.56,-262.58 734.44,-261.3"/>
</g>
<!-- 24&#45;&gt;21 -->
<g id="edge28" class="edge">
<title>24&#45;&gt;21</title>
<path fill="none" stroke="grey" stroke-width="2" d="M712.4,-143.7C705.88,-135.39 697.93,-125.28 690.75,-116.14"/>
<polygon fill="grey" stroke="grey" stroke-width="2" points="693.37,-113.81 684.44,-108.1 687.87,-118.13 693.37,-113.81"/>
</g>
</g>
</svg>
